# xmcd
# 
# Track frame offsets:
#     150
#     12970
#     28300
#     42602
#     87702
#     99362
#     112265
#     122602
#     134885
#     147530
#     162717
#     177827
#     213795
# 
# Disc length: 3194
# 
# Revision: 1
# Processed by: cddbd v1.5.2PL0 Copyright (c) Steve Scherf et al.
# Submitted via: BonkEnc v1.0.15
# 
DISCID=cb0c780d
DTITLE=Various Artist - SPIRIT of RJ
DYEAR=2000
DGENRE=Blues
TTITLE0=Houston Stackhouse - Kind Hearted Woman
TTITLE1=J. B. Hutto - Dust My Broom
TTITLE2=Honey boy Edwards - Sweet Home Chicago
TTITLE3=Freddie King - Sweet Home Chicago
TTITLE4=Scrapper Blackwell - Ramblin' Blues
TTITLE5=Robert Jr. Lockwood - Ramblin' On My Mind
TTITLE6=Johnny Winter - 38-32-20
TTITLE7=Mad-Wards - 真っ赤で熱くてうまいヤツ　(They're Red Hot)
TTITLE8=Elmore James - Standing At The Crossroads
TTITLE9=Johnny Shines - Ramblin'
TTITLE10=Homesick James - Stones In My Passway
TTITLE11=D. M. B. Q. - Stop Breakin' Down Blues
TTITLE12=Mojo Boogie Band - Traveling Riverside Blues
EXTD=Blues and Soul Records Vol.33
EXTT0=
EXTT1=
EXTT2=
EXTT3=
EXTT4=
EXTT5=
EXTT6=
EXTT7=
EXTT8=
EXTT9=
EXTT10=
EXTT11=
EXTT12=
PLAYORDER=
